<?xml version="1.0" encoding="iso-8859-1"?>
<!-- Generator: Adobe Illustrator 16.0.0, SVG Export Plug-In . SVG Version: 6.00 Build 0)  -->
<!DOCTYPE svg PUBLIC "-//W3C//DTD SVG 1.1//EN" "http://www.w3.org/Graphics/SVG/1.1/DTD/svg11.dtd">
<svg version="1.1" id="Layer_1" xmlns="http://www.w3.org/2000/svg" xmlns:xlink="http://www.w3.org/1999/xlink" x="0px" y="0px"
	 width="489px" height="103px" viewBox="0 0 489 103" style="enable-background:new 0 0 489 103;" xml:space="preserve">
<g>
	<g>
		<path style="fill:#4D4D4F;" d="M116.475,94.063V7.058h11.633v87.006H116.475z"/>
		<path style="fill:#4D4D4F;" d="M163.126,49.106V7.058h11.634v87.006h-11.634V76.735L150.645,37.11v56.953h-11.633V7.058h11.633
			L163.126,49.106z"/>
		<path style="fill:#4D4D4F;" d="M213.294,94.063h-27.629V7.058h11.632v76.464h15.997V94.063z"/>
		<path style="fill:#4D4D4F;" d="M230.984,94.063h-11.633V21.963c0-9.937,4.645-14.905,13.936-14.905h8.725
			c9.289,0,13.936,4.969,13.936,14.905v72.101h-11.633v-31.87h-13.33V94.063z M244.314,51.651V22.689
			c0-3.393-1.697-5.089-5.09-5.089h-3.15c-3.395,0-5.09,1.696-5.09,5.089v28.962H244.314z"/>
		<path style="fill:#4D4D4F;" d="M266.246,94.063V7.058h28.841v10.543h-17.208v26.417h15.269V54.56h-15.269v28.962h17.208v10.542
			H266.246z"/>
	</g>
	<g>
		<g>
			<path style="fill:#EA2127;" d="M94.379,85.956c0,4.531-3.707,8.238-8.238,8.238H15.6c-4.531,0-8.238-3.707-8.238-8.238V15.415
				c0-4.531,3.707-8.238,8.238-8.238h70.541c4.531,0,8.238,3.707,8.238,8.238V85.956z"/>
		</g>
		<path style="opacity:0.4;fill:#231F20;" d="M23.172,69.67l-0.126,1.078l23.673,23.446c0,0,32.277,0,38.941,0
			c7.967,0,8.707-7.167,8.719-8.175c0.008-0.563,0-33.684,0-33.684L77.871,35.868L76.39,69.67l-12.167-7.304l-13.18,7.304
			l-12.618-6.859L23.172,69.67z"/>
		<g>
			<path style="fill:#FFFFFF;" d="M79.109,37.592c-0.078-0.12-1.3-2.251-3.751-4.44c-2.433-2.178-6.216-4.443-11.188-4.443
				c-4.976,0-8.715,2.273-11.11,4.462c-0.736,0.676-1.352,1.344-1.866,1.951c-0.528-0.612-1.17-1.285-1.925-1.97
				c-2.438-2.178-6.22-4.443-11.192-4.443c-4.981,0-8.715,2.273-11.106,4.462c-2.403,2.196-3.572,4.332-3.642,4.455l-0.261,0.985
				v32.142l3.852,0.982l0.01,0.008c0.053-0.113,1.089-1.897,2.986-3.56c1.917-1.678,4.582-3.225,8.161-3.232
				c3.681,0,6.479,1.655,8.456,3.411c0.97,0.87,1.732,1.746,2.217,2.397c0.253,0.329,0.426,0.597,0.547,0.769
				c0.055,0.091,0.102,0.161,0.124,0.207c0.005,0.018,0.019,0.031,0.019,0.039l0,0l0,0h0.012l3.574-0.033l0,0l0.002-0.008v-0.007
				c0.08-0.148,1.117-1.899,2.986-3.547c1.92-1.678,4.584-3.225,8.16-3.232c3.679,0,6.479,1.655,8.464,3.412
				c0.972,0.868,1.71,1.745,2.209,2.397c0.253,0.329,0.431,0.596,0.555,0.77c0.056,0.093,0.095,0.159,0.12,0.207
				c0.015,0.017,0.02,0.03,0.02,0.037h0.002l0,0l3.842-1.021V38.61L79.109,37.592z M38.077,60.845h-0.008
				c-4.831,0-8.493,2.146-10.884,4.271V39.192c0.42-0.646,1.34-1.923,2.729-3.151c1.918-1.675,4.584-3.224,8.163-3.224
				c3.677,0,6.479,1.661,8.452,3.405c0.971,0.869,1.734,1.756,2.221,2.409c0.171,0.222,0.315,0.424,0.416,0.578v26.003
				C46.734,63.059,42.99,60.845,38.077,60.845z M64.495,57.331h-0.003c-3.693,0-6.494,1.637-8.32,3.264V40.775
				c0.32-0.492,1.023-1.463,2.084-2.404c1.465-1.281,3.501-2.464,6.239-2.464c2.812,0,4.953,1.267,6.458,2.6
				c0.748,0.664,1.331,1.341,1.699,1.838c0.13,0.172,0.242,0.333,0.318,0.447v19.875C71.116,59.026,68.25,57.331,64.495,57.331z"/>
			<path style="fill:#EA2127;" d="M38.069,60.744h-0.007c-4.902,0-8.607,2.178-11.044,4.328V38.783
				c0.433-0.656,1.366-1.949,2.773-3.198c1.947-1.7,4.646-3.269,8.277-3.269c3.728,0,6.568,1.679,8.571,3.451
				c0.984,0.884,1.759,1.776,2.254,2.44c0.173,0.229,0.314,0.438,0.416,0.587v26.374C46.846,62.99,43.05,60.744,38.069,60.744z"/>
			<path style="fill:#EA2127;" d="M75.268,65.213c-2.447-2.158-6.18-4.368-11.097-4.368c-4.831-0.006-8.497,2.146-10.893,4.271
				V39.192c0.426-0.639,1.348-1.923,2.735-3.151c1.92-1.675,4.584-3.224,8.157-3.224c3.679,0,6.481,1.661,8.464,3.405
				c0.973,0.869,1.713,1.756,2.209,2.409c0.174,0.222,0.315,0.424,0.424,0.578V65.213z"/>
		</g>
	</g>
	<g>
		<g>
			<path style="fill:#ED1C24;" d="M317.406,30.035V6.856h3.1v23.179H317.406z"/>
			<path style="fill:#ED1C24;" d="M329.834,18.058V6.856h3.1v23.179h-3.1v-4.616l-3.326-10.556v15.172h-3.1V6.856h3.1
				L329.834,18.058z"/>
			<path style="fill:#ED1C24;" d="M341.779,13.086v-2.034c0-0.924-0.453-1.388-1.356-1.388h-0.485c-0.883,0-1.322,0.463-1.322,1.388
				v3.842c0,0.431,0.086,0.721,0.258,0.871c0.17,0.151,0.451,0.345,0.839,0.582l2.938,1.582c0.646,0.366,1.104,0.651,1.373,0.855
				c0.267,0.205,0.479,0.452,0.63,0.743c0.148,0.291,0.226,0.845,0.226,1.662v4.94c0,2.604-1.25,3.906-3.745,3.906h-1.906
				c-2.475,0-3.711-1.42-3.711-4.261v-1.162h3.1v1.259c0,0.904,0.461,1.356,1.388,1.356h0.548c0.818,0,1.229-0.452,1.229-1.356
				v-3.939c0-0.43-0.087-0.72-0.26-0.871c-0.172-0.15-0.452-0.344-0.84-0.582l-2.938-1.646c-0.645-0.344-1.113-0.635-1.404-0.872
				c-0.291-0.236-0.5-0.543-0.629-0.92c-0.129-0.376-0.193-0.866-0.193-1.469v-4.746c0-2.647,1.236-3.971,3.711-3.971h1.938
				c2.475,0,3.714,1.323,3.714,3.971v2.26H341.779z"/>
			<path style="fill:#ED1C24;" d="M352.398,9.665v20.37h-3.1V9.665h-2.968V6.856h9.037v2.809H352.398z"/>
			<path style="fill:#ED1C24;" d="M357.145,30.035V6.856h3.1v23.179H357.145z"/>
			<path style="fill:#ED1C24;" d="M368.088,9.665v20.37h-3.1V9.665h-2.971V6.856h9.039v2.809H368.088z"/>
			<path style="fill:#ED1C24;" d="M382.903,6.856v18.789c0,2.927-1.248,4.39-3.744,4.39h-2.614c-2.477,0-3.714-1.474-3.714-4.423
				V6.856h3.1v18.853c0,1.012,0.452,1.518,1.355,1.518h1.259c0.841,0,1.259-0.506,1.259-1.518V6.856H382.903z"/>
			<path style="fill:#ED1C24;" d="M390.748,9.665v20.37h-3.099V9.665h-2.97V6.856h9.039v2.809H390.748z"/>
			<path style="fill:#ED1C24;" d="M399.077,30.035c-2.498,0-3.746-1.313-3.746-3.938v-15.27c0-2.647,1.237-3.971,3.714-3.971h2.97
				c2.475,0,3.712,1.323,3.712,3.971v15.27c0,2.626-1.248,3.938-3.744,3.938H399.077z M399.818,27.227h1.582
				c0.819,0,1.227-0.452,1.227-1.356v-14.85c0-0.904-0.463-1.356-1.389-1.356h-1.452c-0.903,0-1.355,0.452-1.355,1.356v14.85
				C398.431,26.774,398.895,27.227,399.818,27.227z"/>
			<path style="fill:#ED1C24;" d="M324.767,61.996h-7.36V38.817h3.1v20.371h4.261V61.996z"/>
			<path style="fill:#ED1C24;" d="M329.479,61.996h-3.1V42.788c0-2.647,1.236-3.971,3.713-3.971h2.324
				c2.475,0,3.713,1.323,3.713,3.971v19.208h-3.099v-8.49h-3.552V61.996z M333.03,50.697v-7.715c0-0.904-0.452-1.356-1.356-1.356
				h-0.84c-0.903,0-1.355,0.452-1.355,1.356v7.715H333.03z"/>
			<path style="fill:#ED1C24;" d="M343.811,41.625v20.371h-3.099V41.625h-2.968v-2.809h9.037v2.809H343.811z"/>
			<path style="fill:#ED1C24;" d="M348.557,61.996V38.817h3.1v23.179H348.557z"/>
			<path style="fill:#ED1C24;" d="M360.985,50.019V38.817h3.099v23.179h-3.099v-4.617l-3.325-10.556v15.173h-3.1V38.817h3.1
				L360.985,50.019z"/>
			<path style="fill:#ED1C24;" d="M370.572,61.996c-2.496,0-3.744-1.313-3.744-3.939V42.788c0-2.647,1.237-3.971,3.712-3.971h2.97
				c2.475,0,3.714,1.323,3.714,3.971v15.269c0,2.627-1.25,3.939-3.746,3.939H370.572z M371.316,59.188h1.582
				c0.816,0,1.227-0.452,1.227-1.355V42.981c0-0.904-0.464-1.356-1.389-1.356h-1.453c-0.904,0-1.355,0.452-1.355,1.356v14.851
				C369.928,58.735,370.389,59.188,371.316,59.188z"/>
			<path style="fill:#ED1C24;" d="M382.905,61.996h-3.099V42.788c0-2.647,1.236-3.971,3.711-3.971h2.326
				c2.474,0,3.711,1.323,3.711,3.971v19.208h-3.1v-8.49h-3.55V61.996z M386.455,50.697v-7.715c0-0.904-0.45-1.356-1.355-1.356
				h-0.838c-0.906,0-1.356,0.452-1.356,1.356v7.715H386.455z"/>
			<path style="fill:#ED1C24;" d="M398.592,52.439l2.873-13.623h3.424v23.179h-3.1l0.322-15.173l-2.322,10.976h-2.391l-2.324-10.976
				l0.324,15.173h-3.1V38.817h3.42L398.592,52.439z"/>
			<path style="fill:#ED1C24;" d="M407.793,61.996V38.817h7.685v2.809h-4.585v7.038h4.067v2.809h-4.067v7.716h4.585v2.809H407.793z"
				/>
			<path style="fill:#ED1C24;" d="M417.703,38.817h6.07c2.367,0,3.552,1.323,3.552,3.971v5.714c0,2.023-0.614,3.304-1.841,3.842
				l2.162,9.652h-2.938l-2.033-9.362h-1.873v9.362h-3.1V38.817z M420.803,49.986h2.035c0.925,0,1.389-0.559,1.389-1.678v-5.004
				c0-1.119-0.464-1.679-1.389-1.679h-2.035V49.986z"/>
			<path style="fill:#ED1C24;" d="M429.908,61.996V38.817h3.099v23.179H429.908z"/>
			<path style="fill:#ED1C24;" d="M445.176,56.572v1.484c0,2.627-1.236,3.939-3.713,3.939h-2c-2.477,0-3.715-1.313-3.715-3.939
				V42.755c0-2.625,1.238-3.938,3.715-3.938h2c2.477,0,3.713,1.313,3.713,3.938v2.615h-3.1v-2.389c0-0.904-0.463-1.356-1.388-1.356
				h-0.614c-0.816,0-1.227,0.452-1.227,1.356v14.851c0,0.903,0.41,1.355,1.227,1.355h0.776c0.817,0,1.226-0.452,1.226-1.355v-1.26
				H445.176z"/>
			<path style="fill:#ED1C24;" d="M450.535,61.996h-3.1V42.788c0-2.647,1.236-3.971,3.713-3.971h2.324
				c2.475,0,3.713,1.323,3.713,3.971v19.208h-3.1v-8.49h-3.551V61.996z M454.086,50.697v-7.715c0-0.904-0.452-1.356-1.355-1.356
				h-0.84c-0.903,0-1.355,0.452-1.355,1.356v7.715H454.086z"/>
			<path style="fill:#ED1C24;" d="M466.353,50.019V38.817h3.1v23.179h-3.1v-4.617l-3.323-10.556v15.173h-3.1V38.817h3.1
				L466.353,50.019z"/>
			<path style="fill:#ED1C24;" d="M475.939,61.996c-2.496,0-3.744-1.313-3.744-3.939V42.788c0-2.647,1.238-3.971,3.713-3.971h2.969
				c2.475,0,3.715,1.323,3.715,3.971v15.269c0,2.627-1.25,3.939-3.746,3.939H475.939z M476.684,59.188h1.582
				c0.816,0,1.227-0.452,1.227-1.355V42.981c0-0.904-0.464-1.356-1.389-1.356h-1.453c-0.904,0-1.355,0.452-1.355,1.356v14.851
				C475.295,58.735,475.757,59.188,476.684,59.188z"/>
			<path style="fill:#ED1C24;" d="M317.406,93.956V70.777h5.391c2.904,0,4.357,1.484,4.357,4.455V90.6
				c0,2.238-1.236,3.356-3.711,3.356H317.406z M320.506,91.147h2.322c0.817,0,1.227-0.344,1.227-1.033v-14.85
				c0-1.119-0.463-1.679-1.388-1.679h-2.161V91.147z"/>
			<path style="fill:#ED1C24;" d="M329.898,93.956V70.777h7.684v2.809h-4.584v7.037h4.066v2.81h-4.066v7.715h4.584v2.809H329.898z"
				/>
			<path style="fill:#ED1C24;" d="M344.973,93.956V70.777h7.684v2.809h-4.584v7.037h4.067v2.81h-4.067v7.715h4.584v2.809H344.973z"
				/>
			<path style="fill:#ED1C24;" d="M354.883,93.956V70.777h5.393c2.906,0,4.359,1.484,4.359,4.455V90.6
				c0,2.238-1.24,3.356-3.715,3.356H354.883z M357.982,91.147h2.326c0.816,0,1.227-0.344,1.227-1.033v-14.85
				c0-1.119-0.464-1.679-1.389-1.679h-2.164V91.147z"/>
			<path style="fill:#ED1C24;" d="M377.45,70.777v18.788c0,2.927-1.248,4.391-3.746,4.391h-2.614c-2.475,0-3.712-1.474-3.712-4.423
				V70.777h3.1v18.854c0,1.012,0.45,1.517,1.355,1.517h1.259c0.838,0,1.259-0.505,1.259-1.517V70.777H377.45z"/>
			<path style="fill:#ED1C24;" d="M389.619,88.532v1.485c0,2.626-1.236,3.938-3.711,3.938h-2.003c-2.474,0-3.712-1.313-3.712-3.938
				V74.716c0-2.626,1.238-3.938,3.712-3.938h2.003c2.475,0,3.711,1.313,3.711,3.938v2.614h-3.1v-2.389
				c0-0.904-0.461-1.355-1.388-1.355h-0.612c-0.818,0-1.227,0.451-1.227,1.355v14.851c0,0.904,0.408,1.355,1.227,1.355h0.773
				c0.819,0,1.227-0.451,1.227-1.355v-1.26H389.619z"/>
			<path style="fill:#ED1C24;" d="M394.978,93.956h-3.1V74.748c0-2.647,1.237-3.971,3.714-3.971h2.324
				c2.474,0,3.713,1.323,3.713,3.971v19.208h-3.1v-8.489h-3.552V93.956z M398.529,82.658v-7.717c0-0.904-0.452-1.355-1.355-1.355
				h-0.84c-0.904,0-1.356,0.451-1.356,1.355v7.717H398.529z"/>
			<path style="fill:#ED1C24;" d="M413.637,88.532v1.485c0,2.626-1.237,3.938-3.711,3.938h-2.003c-2.475,0-3.712-1.313-3.712-3.938
				V74.716c0-2.626,1.237-3.938,3.712-3.938h2.003c2.474,0,3.711,1.313,3.711,3.938v2.614h-3.1v-2.389
				c0-0.904-0.461-1.355-1.388-1.355h-0.612c-0.819,0-1.227,0.451-1.227,1.355v14.851c0,0.904,0.407,1.355,1.227,1.355h0.773
				c0.819,0,1.227-0.451,1.227-1.355v-1.26H413.637z"/>
			<path style="fill:#ED1C24;" d="M416.059,93.956V70.777h3.1v23.179H416.059z"/>
			<path style="fill:#ED1C24;" d="M425.646,93.956c-2.498,0-3.746-1.313-3.746-3.938v-15.27c0-2.647,1.237-3.971,3.714-3.971h2.97
				c2.475,0,3.712,1.323,3.712,3.971v15.27c0,2.626-1.248,3.938-3.744,3.938H425.646z M426.388,91.147h1.582
				c0.819,0,1.227-0.451,1.227-1.355V74.941c0-0.904-0.464-1.355-1.388-1.355h-1.453c-0.903,0-1.355,0.451-1.355,1.355v14.851
				C425,90.696,425.463,91.147,426.388,91.147z M427.422,69.26h-2.195l1.484-3.809h2.841L427.422,69.26z"/>
			<path style="fill:#ED1C24;" d="M441.465,81.98V70.777h3.1v23.179h-3.1V89.34l-3.326-10.557v15.173h-3.1V70.777h3.1L441.465,81.98
				z"/>
		</g>
	</g>
</g>
</svg>
